<?xml version="1.0" encoding="UTF-8"?>
<svg width="38px" height="37px" viewBox="0 0 38 37" version="1.1" xmlns="http://www.w3.org/2000/svg" xmlns:xlink="http://www.w3.org/1999/xlink">
    <!-- Generator: Sketch 45.2 (43514) - http://www.bohemiancoding.com/sketch -->
    <title>Slice</title>
    <desc>Created with Sketch.</desc>
    <defs></defs>
    <g id="Page-1" stroke="none" stroke-width="1" fill="none" fill-rule="evenodd">
        <g id="icon_start" transform="translate(19.809398, 17.809398) rotate(-315.000000) translate(-19.809398, -17.809398) translate(3.809398, -2.690602)">
            <path d="M24.806712,25.7021442 C25.10966,24.633968 25.5044048,23.5843159 25.9996136,22.3052631 C26.4948223,21.0262104 26.7264812,19.6959492 27.9125164,20.3306538 C29.0985516,20.9653584 29.8907879,22.4845844 30.6390789,24.0013081 C31.3873699,25.5180317 31.7058052,28.0693521 31.5589397,29.2319599 C31.4120743,30.3945678 30.5540307,30.2091933 28.4731722,28.9276078 C26.3923138,27.6460224 24.503764,26.7703205 24.806712,25.7021442 Z" id="Combined-Shape" fill="#FFFFFF"></path>
            <path d="M0.0321026641,25.5350199 C0.335050662,24.4668437 0.729795535,23.4171916 1.22500428,22.1381388 C1.72021302,20.8590861 1.95187195,19.5288249 3.13790711,20.1635295 C4.32394226,20.798234 5.11617859,22.3174601 5.86446961,23.8341838 C6.61276062,25.3509074 6.93119588,27.9022277 6.78433045,29.0648356 C6.63746501,30.2274435 5.77942136,30.042069 3.69856292,28.7604835 C1.61770447,27.4788981 -0.270845334,26.6031962 0.0321026641,25.5350199 Z" id="Combined-Shape" fill="#FFFFFF" transform="translate(3.409619, 24.919200) scale(-1, 1) translate(-3.409619, -24.919200) "></path>
            <path d="M15.865321,0 C17.8000736,0 22.2159214,5.82683638 23.0848522,12.4642578 C24.3192272,21.8931641 21.9237394,23.9113247 21.1598522,24.8 C20.1411999,25.9850586 10.9937389,25.4873047 10.4842663,24.8 C9.72141248,23.7708712 7.10711783,20.2814453 8.31297721,12.4642578 C9.51883658,4.64707031 13.9551217,4.02882778e-16 15.865321,0 Z" id="Triangle-2" stroke="#FFFFFF" stroke-width="3"></path>
            <circle id="Oval" stroke="#FFFFFF" stroke-width="2" cx="15.6" cy="11.6" r="2.8"></circle>
            <g id="Group-16" transform="translate(11.200000, 29.200000)" stroke="#FFFFFF" stroke-width="2" stroke-linecap="round" stroke-linejoin="round">
                <path d="M1,-1.42108547e-14 L1,6.4" id="Line-2"></path>
                <path d="M5,2 L5,10.8" id="Line-3"></path>
                <path d="M8,0 L8,4" id="Line-3-Copy"></path>
            </g>
        </g>
    </g>
</svg>