<?xml version="1.0" encoding="UTF-8"?>
<svg width="38px" height="37px" viewBox="0 0 38 37" version="1.1" xmlns="http://www.w3.org/2000/svg" xmlns:xlink="http://www.w3.org/1999/xlink">
    <!-- Generator: Sketch 45.2 (43514) - http://www.bohemiancoding.com/sketch -->
    <title>Slice</title>
    <desc>Created with Sketch.</desc>
    <defs></defs>
    <g id="Page-1" stroke="none" stroke-width="1" fill="none" fill-rule="evenodd">
        <g id="icon_open-source" transform="translate(20.688077, 16.688077) rotate(-315.000000) translate(-20.688077, -16.688077) translate(4.188077, -0.311923)" fill="#FFFFFF">
            <path d="M23.1173478,32.5952918 C21.0916503,33.4797732 18.8533615,33.9705882 16.5,33.9705882 C14.8102211,33.9705882 13.1797696,33.7175418 11.6447457,33.2474122 C12.493794,32.4552247 13.1587189,31.4682283 13.5683097,30.3576338 C14.5111999,30.5706481 15.4924162,30.683112 16.5,30.683112 C18.3067173,30.683112 20.0286561,30.3215099 21.59687,29.6669905 C21.8830706,30.7604364 22.4098912,31.7565303 23.1173478,32.5952918 Z M32.5762837,21.2505585 C32.85349,20.0560331 33,18.8116647 33,17.5332068 C33,11.7560782 30.0082966,6.67504757 25.484079,3.74376645 C25.609948,4.28852765 25.6764706,4.85600232 25.6764706,5.43901417 C25.6764706,6.24364509 25.5497614,7.0186815 25.3152082,7.74525839 C28.0068763,10.1526628 29.7,13.6459601 29.7,17.5332068 C29.7,18.4762814 29.6003456,19.3961688 29.410955,20.2829884 C30.5568263,20.3672647 31.6311398,20.7089935 32.576283,21.2505621 Z M0.876554605,22.8333635 C0.308273409,21.1704274 0,19.3876811 0,17.5332068 C0,10.1553639 4.87925227,3.91280653 11.5985257,1.83323174 C11.0107704,2.90318313 10.6764706,4.1320587 10.6764706,5.43901417 C10.6764706,5.53520462 10.6782814,5.63097213 10.6818709,5.72628447 C6.30921225,7.86873999 3.3,12.3508875 3.3,17.5332068 C3.3,18.6642829 3.44334684,19.7620056 3.71292969,20.8093291 C2.61371822,21.2550165 1.64416389,21.9537906 0.876554605,22.8333635 Z" id="Combined-Shape" fill-rule="nonzero"></path>
            <circle id="Oval-4" cx="18" cy="4" r="4"></circle>
            <circle id="Oval-4-Copy" cx="6" cy="28" r="4"></circle>
            <circle id="Oval-4-Copy-6" cx="28" cy="27" r="4"></circle>
        </g>
    </g>
</svg>