<?xml version="1.0" encoding="UTF-8"?>
<svg width="20px" height="17px" viewBox="0 0 20 17" version="1.1" xmlns="http://www.w3.org/2000/svg" xmlns:xlink="http://www.w3.org/1999/xlink">
    <!-- Generator: Sketch 46.1 (44463) - http://www.bohemiancoding.com/sketch -->
    <title>icon back</title>
    <desc>Created with Sketch.</desc>
    <defs>
        <polygon id="path-1" points="0 17 0 0 19.5 0 19.5 17"></polygon>
    </defs>
    <g id="Page-1" stroke="none" stroke-width="1" fill="none" fill-rule="evenodd">
        <g id="icon-back">
            <mask id="mask-2" fill="white">
                <use xlink:href="#path-1"></use>
            </mask>
            <g id="Clip-2"></g>
            <path d="M18.5,7.5 L3.414,7.5 L9.207,1.707 C9.598,1.316 9.598,0.684 9.207,0.293 C8.816,-0.098 8.184,-0.098 7.793,0.293 L0.293,7.793 C-0.098,8.184 -0.098,8.816 0.293,9.207 L7.793,16.707 C7.988,16.902 8.244,17 8.5,17 C8.756,17 9.012,16.902 9.207,16.707 C9.598,16.316 9.598,15.684 9.207,15.293 L3.414,9.5 L18.5,9.5 C19.052,9.5 19.5,9.052 19.5,8.5 C19.5,7.948 19.052,7.5 18.5,7.5" id="Fill-1" fill="#FFFFFF" mask="url(#mask-2)"></path>
        </g>
    </g>
</svg>